<?xml version="1.0" standalone="no"?>
<!DOCTYPE svg PUBLIC "-//W3C//DTD SVG 20010904//EN"
 "http://www.w3.org/TR/2001/REC-SVG-20010904/DTD/svg10.dtd">
<svg version="1.0" xmlns="http://www.w3.org/2000/svg"
 width="500.000000pt" height="500.000000pt" viewBox="0 0 500.000000 500.000000"
 preserveAspectRatio="xMidYMid meet">

<g transform="translate(0.000000,500.000000) scale(0.100000,-0.100000)"
fill="#000000" stroke="none">
<path d="M2765 3321 c-9 -16 27 -55 45 -49 9 3 5 13 -12 33 -18 21 -27 25 -33
16z"/>
<path d="M1950 2481 c7 -14 54 -63 104 -110 113 -106 249 -242 388 -388 59
-62 112 -113 117 -113 5 0 24 19 42 43 60 78 323 352 391 406 49 39 112 110
86 95 -10 -5 -132 -123 -271 -261 l-253 -252 -240 237 c-304 302 -380 373
-364 343z"/>
<path d="M3139 2474 l-24 -27 28 18 c15 9 27 21 27 26 0 14 -5 11 -31 -17z"/>
<path d="M3300 2476 c0 -15 41 -26 58 -16 15 10 15 11 -4 7 -12 -2 -29 0 -38
5 -9 5 -16 7 -16 4z"/>
<path d="M2960 2041 c0 -16 38 -23 60 -11 27 15 25 22 -3 11 -14 -5 -30 -5
-40 0 -11 7 -17 6 -17 0z"/>
<path d="M2103 2033 c9 -2 23 -2 30 0 6 3 -1 5 -18 5 -16 0 -22 -2 -12 -5z"/>
<path d="M1865 1714 c-13 -10 -35 -14 -61 -12 -27 2 -40 -1 -37 -8 6 -16 91
-1 111 20 20 20 14 20 -13 0z"/>
<path d="M3257 1699 c7 -7 15 -10 18 -7 3 3 -2 9 -12 12 -14 6 -15 5 -6 -5z"/>
<path d="M3330 1700 c-13 -8 -12 -10 3 -10 9 0 17 5 17 10 0 12 -1 12 -20 0z"/>
<path d="M2255 1671 c-3 -5 -2 -12 3 -15 5 -3 9 1 9 9 0 17 -3 19 -12 6z"/>
<path d="M2510 1671 c0 -16 47 -24 67 -11 16 10 16 10 -4 5 -12 -3 -31 -1 -43
5 -13 7 -20 7 -20 1z"/>
<path d="M2791 1677 c2 -1 13 -9 24 -17 19 -14 19 -14 6 3 -7 9 -18 17 -24 17
-6 0 -8 -1 -6 -3z"/>
<path d="M1671 1589 c-46 -43 -1 -117 63 -103 38 8 35 5 42 40 4 21 0 36 -16
54 -27 31 -61 35 -89 9z"/>
<path d="M3320 1559 c0 -7 -3 -9 -7 -6 -11 12 -33 -14 -33 -40 0 -13 12 -35
26 -48 28 -26 64 -33 64 -13 0 6 3 8 7 5 11 -11 43 24 43 48 0 29 -39 70 -53
56 -7 -7 -16 -7 -29 0 -13 7 -18 6 -18 -2z"/>
<path d="M2595 1450 c-3 -6 1 -7 9 -4 18 7 21 14 7 14 -6 0 -13 -4 -16 -10z"/>
<path d="M2506 1441 c-3 -5 2 -15 12 -22 15 -12 16 -12 5 2 -7 9 -10 19 -6 22
3 4 4 7 0 7 -3 0 -8 -4 -11 -9z"/>
<path d="M3491 1403 c-19 -13 -30 -23 -25 -23 5 0 20 7 32 16 12 8 22 11 22 5
0 -5 -10 -17 -22 -25 -12 -9 -18 -16 -12 -16 17 0 46 37 42 52 -2 11 -11 9
-37 -9z"/>
<path d="M1612 1416 c4 -5 3 -16 -2 -26 -7 -13 -4 -22 13 -36 l22 -19 -18 22
c-12 14 -15 23 -8 28 6 3 11 1 11 -5 0 -6 10 -15 23 -20 12 -5 16 -9 10 -9 -7
-1 -13 -6 -13 -12 0 -5 5 -7 10 -4 6 3 10 -1 10 -9 0 -8 9 -18 20 -21 11 -4
18 -11 15 -16 -4 -5 -1 -9 4 -9 6 0 12 5 12 10 4 32 3 40 -6 38 -5 -2 -9 -6
-7 -10 1 -5 -2 -8 -7 -8 -10 0 -25 30 -22 43 1 5 -8 11 -19 14 -11 3 -20 11
-20 18 0 7 -8 19 -17 26 -10 7 -15 10 -11 5z"/>
<path d="M2546 1388 c3 -5 10 -6 15 -3 13 9 11 12 -6 12 -8 0 -12 -4 -9 -9z"/>
<path d="M1976 1368 c3 -5 10 -6 15 -3 13 9 11 12 -6 12 -8 0 -12 -4 -9 -9z"/>
<path d="M2005 1350 c-3 -6 1 -7 9 -4 18 7 21 14 7 14 -6 0 -13 -4 -16 -10z"/>
<path d="M2380 1349 c0 -5 -4 -7 -10 -4 -14 9 -12 -1 3 -13 10 -8 13 -6 14 9
1 10 0 19 -3 19 -2 0 -4 -5 -4 -11z"/>
<path d="M2073 1335 c0 -8 4 -12 9 -9 5 3 6 10 3 15 -9 13 -12 11 -12 -6z"/>
<path d="M2172 1314 c10 -10 20 -15 24 -12 3 4 -5 12 -18 18 -22 12 -22 12 -6
-6z"/>
<path d="M1744 1312 c3 -5 0 -12 -6 -15 -7 -2 -10 -7 -7 -11 3 -4 12 0 18 8 9
11 9 16 0 22 -7 4 -9 3 -5 -4z"/>
<path d="M3366 1305 c-3 -9 -10 -14 -15 -11 -12 8 -43 -23 -35 -35 3 -5 -7 -8
-23 -7 -34 2 -79 -25 -86 -53 -4 -13 -10 -18 -17 -14 -9 6 -9 10 1 17 11 7 9
8 -4 4 -10 -3 -22 -6 -25 -6 -4 0 -1 -4 7 -9 14 -9 7 -31 -10 -31 -6 0 -7 5
-4 10 3 6 -3 10 -14 10 -12 0 -21 -4 -21 -10 0 -5 -8 -7 -17 -3 -16 6 -15 3 2
-17 l20 -24 -25 15 c-26 16 -65 14 -55 -2 4 -5 -4 -8 -17 -7 -34 2 -178 -43
-178 -56 0 -25 21 -34 58 -24 80 20 181 61 176 70 -4 6 2 7 15 3 14 -4 23 -1
27 9 3 9 14 16 24 16 11 0 21 4 25 10 3 5 12 7 20 4 8 -3 30 9 50 29 24 24 42
33 55 30 12 -3 22 1 26 11 3 9 11 13 17 9 5 -3 7 -1 3 5 -3 5 0 13 6 16 7 3 2
3 -12 -1 -22 -5 -23 -4 -11 10 7 9 17 15 21 12 5 -3 11 -1 15 5 3 5 11 10 18
10 8 0 8 -3 -1 -12 -7 -7 -12 -16 -12 -21 0 -5 7 -1 16 8 15 15 15 18 2 31
-14 14 -16 14 -22 -1z m-107 -80 c-24 -25 -39 -32 -39 -17 0 6 48 41 59 42 2
0 -7 -11 -20 -25z m58 9 c-3 -3 -12 -4 -19 -1 -8 3 -5 6 6 6 11 1 17 -2 13 -5z
m-87 -48 c0 -2 -7 -7 -16 -10 -8 -3 -12 -2 -9 4 6 10 25 14 25 6z"/>
<path d="M2229 1283 c-7 -10 -9 -15 -4 -10 4 4 16 0 26 -9 10 -9 22 -13 28
-10 12 8 3 36 -11 36 -6 0 -5 -6 2 -15 7 -8 8 -15 2 -15 -14 0 -33 25 -25 33
3 4 4 7 1 7 -3 0 -12 -8 -19 -17z"/>
<path d="M1751 1276 c-17 -20 3 -30 22 -12 8 8 18 12 22 8 5 -4 5 -1 1 6 -10
16 -31 15 -45 -2z"/>
<path d="M2170 1285 c0 -7 30 -13 34 -7 3 4 -4 9 -15 9 -10 1 -19 0 -19 -2z"/>
<path d="M2831 1283 c-1 -17 16 -25 25 -12 4 7 3 9 -4 5 -5 -3 -13 0 -15 6 -4
9 -6 10 -6 1z"/>
<path d="M1805 1262 c-15 -11 -15 -42 1 -42 7 0 16 5 19 10 4 6 12 7 18 3 7
-3 3 3 -7 15 -11 12 -20 22 -20 22 -1 0 -5 -4 -11 -8z"/>
<path d="M1860 1231 c0 -7 -7 -11 -16 -9 -22 4 -29 -18 -9 -26 9 -3 14 -2 11
2 -3 5 1 9 8 9 9 0 12 -7 8 -16 -5 -14 -4 -14 11 -2 15 12 17 12 11 -4 -5 -13
-4 -16 4 -11 7 4 12 2 12 -4 0 -6 4 -9 9 -6 5 3 14 -1 21 -9 7 -8 21 -15 31
-15 10 0 20 -4 23 -9 9 -14 213 -81 249 -81 8 0 17 8 19 18 4 15 -9 23 -83 45
-48 15 -96 24 -106 20 -10 -3 -15 -2 -11 2 10 10 -122 67 -139 60 -7 -2 -12 0
-10 6 1 6 -8 18 -20 26 -15 10 -23 12 -23 4z m85 -59 c-3 -3 -11 0 -18 7 -9
10 -8 11 6 5 10 -3 15 -9 12 -12z"/>
</g>
</svg>
